{
  "accessors": [
    {
      "bufferView": 2,
      "componentType": 5126,
      "count": 326,
      "max": [
        5.001035213470459,
        10.967397689819336,
        17.392583847045898
      ],
      "min": [
        -5.8978419303894043,
        -5.7645468711853027,
        -28.678739547729492
      ],
      "type": "VEC3"
    },
    {
      "bufferView": 2,
      "byteOffset": 3912,
      "componentType": 5126,
      "count": 326,
      "max": [
        0.86643087863922119,
        0.99816495180130005,
        0.94581860303878784
      ],
      "min": [
        -0.86643075942993164,
        -0.99997419118881226,
        -1
      ],
      "type": "VEC3"
    },
    {
      "bufferView": 3,
      "componentType": 5126,
      "count": 326,
      "max": [
        1,
        1,
        0.33844748139381409,
        1
      ],
      "min": [
        -1,
        -0.87719738483428955,
        -0.33844742178916931,
        -1
      ],
      "type": "VEC4"
    },
    {
      "bufferView": 1,
      "componentType": 5126,
      "count": 326,
      "max": [
        1,
        1
      ],
      "min": [
        0,
        0
      ],
      "type": "VEC2"
    },
    {
      "bufferView": 0,
      "componentType": 5125,
      "count": 474,
      "max": [
        325
      ],
      "min": [
        0
      ],
      "type": "SCALAR"
    },
    {
      "bufferView": 2,
      "byteOffset": 7824,
      "componentType": 5126,
      "count": 88,
      "max": [
        -0.82591640949249268,
        0.79211521148681641,
        6.8344402313232422
      ],
      "min": [
        -26.895305633544922,
        -2.4006876945495605,
        -9.2337007522583008
      ],
      "type": "VEC3"
    },
    {
      "bufferView": 2,
      "byteOffset": 8880,
      "componentType": 5126,
      "count": 88,
      "max": [
        0.98959654569625854,
        1,
        0.98959654569625854
      ],
      "min": [
        -0.76614433526992798,
        -1,
        -0.99984437227249146
      ],
      "type": "VEC3"
    },
    {
      "bufferView": 3,
      "byteOffset": 5216,
      "componentType": 5126,
      "count": 88,
      "max": [
        0.99389022588729858,
        0.18790599703788757,
        0.76346826553344727,
        1
      ],
      "min": [
        -0.99408435821533203,
        -0.14264889061450958,
        -0.98959654569625854,
        1
      ],
      "type": "VEC4"
    },
    {
      "bufferView": 1,
      "byteOffset": 2608,
      "componentType": 5126,
      "count": 88,
      "max": [
        1,
        1
      ],
      "min": [
        0,
        0
      ],
      "type": "VEC2"
    },
    {
      "bufferView": 0,
      "byteOffset": 1896,
      "componentType": 5125,
      "count": 276,
      "max": [
        87
      ],
      "min": [
        0
      ],
      "type": "SCALAR"
    },
    {
      "bufferView": 2,
      "byteOffset": 9936,
      "componentType": 5126,
      "count": 87,
      "max": [
        -0.82591640949249268,
        4.1531281471252441,
        6.8344402313232422
      ],
      "min": [
        -26.895305633544922,
        -0.79211521148681641,
        -9.2337007522583008
      ],
      "type": "VEC3"
    },
    {
      "bufferView": 2,
      "byteOffset": 10980,
      "componentType": 5126,
      "count": 87,
      "max": [
        0.98959654569625854,
        1,
        0.98959654569625854
      ],
      "min": [
        -0.76614421606063843,
        -1,
        -0.99984437227249146
      ],
      "type": "VEC3"
    },
    {
      "bufferView": 3,
      "byteOffset": 6624,
      "componentType": 5126,
      "count": 87,
      "max": [
        0.99378281831741333,
        0.24464036524295807,
        0.77733135223388672,
        1
      ],
      "min": [
        -0.99379086494445801,
        -0.43406331539154053,
        -0.98959654569625854,
        1
      ],
      "type": "VEC4"
    },
    {
      "bufferView": 1,
      "byteOffset": 3312,
      "componentType": 5126,
      "count": 87,
      "max": [
        1,
        1
      ],
      "min": [
        0,
        0
      ],
      "type": "VEC2"
    },
    {
      "bufferView": 0,
      "byteOffset": 3000,
      "componentType": 5125,
      "count": 276,
      "max": [
        86
      ],
      "min": [
        0
      ],
      "type": "SCALAR"
    },
    {
      "bufferView": 4,
      "componentType": 5126,
      "count": 30,
      "max": [
        0.96666669845581055
      ],
      "min": [
        0
      ],
      "type": "SCALAR"
    },
    {
      "bufferView": 6,
      "componentType": 5126,
      "count": 30,
      "max": [
        -0.020254988223314285,
        -0.019147554412484169,
        0.22093795239925385,
        0.99902987480163574
      ],
      "min": [
        -0.041522260755300522,
        -0.040449906140565872,
        -0.43004721403121948,
        0.90183579921722412
      ],
      "type": "VEC4"
    },
    {
      "bufferView": 4,
      "byteOffset": 120,
      "componentType": 5126,
      "count": 30,
      "max": [
        0.96666669845581055
      ],
      "min": [
        0
      ],
      "type": "SCALAR"
    },
    {
      "bufferView": 6,
      "byteOffset": 480,
      "componentType": 5126,
      "count": 30,
      "max": [
        0.0023916545324027538,
        0.05313519760966301,
        0.99860662221908569,
        0.16097055375576019
      ],
      "min": [
        -0.031892634928226471,
        0.039109282195568085,
        0.87045294046401978,
        -0.48967885971069336
      ],
      "type": "VEC4"
    },
    {
      "bufferView": 4,
      "byteOffset": 240,
      "componentType": 5126,
      "count": 30,
      "max": [
        0.96666669845581055
      ],
      "min": [
        0
      ],
      "type": "SCALAR"
    },
    {
      "bufferView": 5,
      "componentType": 5126,
      "count": 30,
      "max": [
        -0.003326714038848877,
        0.086435317993164062,
        0.073975563049316406
      ],
      "min": [
        -0.003326714038848877,
        0.077472686767578125,
        0.073975563049316406
      ],
      "type": "VEC3"
    }
  ],
  "animations": [
    {
      "channels": [
        {
          "sampler": 0,
          "target": {
            "node": 14,
            "path": "rotation"
          }
        },
        {
          "sampler": 1,
          "target": {
            "node": 17,
            "path": "rotation"
          }
        },
        {
          "sampler": 2,
          "target": {
            "node": 10,
            "path": "translation"
          }
        }
      ],
      "name": "Take 001",
      "samplers": [
        {
          "input": 15,
          "interpolation": "LINEAR",
          "output": 16
        },
        {
          "input": 17,
          "interpolation": "LINEAR",
          "output": 18
        },
        {
          "input": 19,
          "interpolation": "LINEAR",
          "output": 20
        }
      ]
    }
  ],
  "asset": {
    "extras": {
      "author": "sandeep.s (https://sketchfab.com/sandeep.s)",
      "license": "CC-BY-4.0 (http://creativecommons.org/licenses/by/4.0/)",
      "source": "https://sketchfab.com/models/21a70684bbe6441194f87fa46f5d653c",
      "title": "Flying Bird unity"
    },
    "generator": "Sketchfab-3.41.0",
    "version": "2.0"
  },
  "bufferViews": [
    {
      "buffer": 0,
      "byteLength": 4104,
      "byteOffset": 0,
      "name": "floatBufferViews",
      "target": 34963
    },
    {
      "buffer": 0,
      "byteLength": 4008,
      "byteOffset": 4104,
      "byteStride": 8,
      "name": "floatBufferViews",
      "target": 34962
    },
    {
      "buffer": 0,
      "byteLength": 12024,
      "byteOffset": 8112,
      "byteStride": 12,
      "name": "floatBufferViews",
      "target": 34962
    },
    {
      "buffer": 0,
      "byteLength": 8016,
      "byteOffset": 20136,
      "byteStride": 16,
      "name": "floatBufferViews",
      "target": 34962
    },
    {
      "buffer": 0,
      "byteLength": 360,
      "byteOffset": 28152,
      "name": "floatBufferViews"
    },
    {
      "buffer": 0,
      "byteLength": 360,
      "byteOffset": 28512,
      "byteStride": 12,
      "name": "floatBufferViews"
    },
    {
      "buffer": 0,
      "byteLength": 960,
      "byteOffset": 28872,
      "byteStride": 16,
      "name": "floatBufferViews"
    }
  ],
  "buffers": [
    {
      "byteLength": 29832,
      "uri": "scene.bin"
    }
  ],
  "materials": [
    {
      "doubleSided": false,
      "emissiveFactor": [
        0,
        0,
        0
      ],
      "name": "roll_env_07lambert10_0",
      "pbrMetallicRoughness": {
        "baseColorFactor": [
          0.12554694620000001,
          0.12438188560000001,
          0.12438188560000001,
          1
        ],
        "metallicFactor": 0,
        "roughnessFactor": 1
      }
    },
    {
      "doubleSided": false,
      "emissiveFactor": [
        0,
        0,
        0
      ],
      "name": "roll_env_07fishMaterialSG1_1",
      "pbrMetallicRoughness": {
        "baseColorFactor": [
          1,
          1,
          1,
          1
        ],
        "metallicFactor": 0,
        "roughnessFactor": 0.95770500000000003
      }
    }
  ],
  "meshes": [
    {
      "primitives": [
        {
          "attributes": {
            "NORMAL": 1,
            "POSITION": 0,
            "TANGENT": 2,
            "TEXCOORD_0": 3
          },
          "indices": 4,
          "material": 0,
          "mode": 4
        }
      ]
    },
    {
      "primitives": [
        {
          "attributes": {
            "NORMAL": 6,
            "POSITION": 5,
            "TANGENT": 7,
            "TEXCOORD_0": 8
          },
          "indices": 9,
          "material": 1,
          "mode": 4
        }
      ]
    },
    {
      "primitives": [
        {
          "attributes": {
            "NORMAL": 11,
            "POSITION": 10,
            "TANGENT": 12,
            "TEXCOORD_0": 13
          },
          "indices": 14,
          "material": 1,
          "mode": 4
        }
      ]
    }
  ],
  "nodes": [
    {
      "children": [
        1
      ],
      "name": "RootNode (gltf orientation matrix)",
      "rotation": [
        -0.70710678118654746,
        -0,
        -0,
        0.70710678118654757
      ]
    },
    {
      "children": [
        2
      ],
      "name": "RootNode (model correction matrix)"
    },
    {
      "children": [
        3
      ],
      "name": "root"
    },
    {
      "children": [
        4
      ],
      "matrix": [
        1,
        0,
        0,
        0,
        0,
        2.2204460492503131e-16,
        1,
        0,
        0,
        -1,
        2.2204460492503131e-16,
        0,
        0,
        0,
        0,
        1
      ],
      "name": "GLTF_SceneRootNode"
    },
    {
      "children": [
        5
      ],
      "name": "Flying Bird_2"
    },
    {
      "children": [
        6
      ],
      "matrix": [
        1,
        0,
        -0,
        0,
        -0,
        0,
        -1,
        0,
        0,
        1,
        0,
        0,
        0,
        0,
        0,
        1
      ],
      "name": "RootNode (gltf orientation matrix)_3"
    },
    {
      "children": [
        7
      ],
      "name": "RootNode (model correction matrix)_4"
    },
    {
      "children": [
        8
      ],
      "matrix": [
        1,
        0,
        0,
        0,
        0,
        0,
        1,
        0,
        0,
        -1,
        0,
        0,
        0,
        0,
        0,
        1
      ],
      "name": "b41216c5de024b378dcea87d8b695888.fbx_5"
    },
    {
      "children": [
        9
      ],
      "name": "GLTFNode_3_6"
    },
    {
      "children": [
        10
      ],
      "name": "RootNode_7"
    },
    {
      "children": [
        11,
        14,
        17
      ],
      "name": "FlyingBird_8",
      "rotation": [
        -0.0020310478284955025,
        0.99382764101028442,
        -0.10937030613422394,
        -0.018455753102898598
      ],
      "scale": [
        0.10000000149011612,
        0.10000000149011612,
        0.10000000149011612
      ],
      "translation": [
        -0.0033267608378082514,
        0.078872494399547577,
        0.073975525796413422
      ]
    },
    {
      "children": [
        12
      ],
      "matrix": [
        0.10409986227750778,
        1.0842022259940167e-19,
        2.1740336187466656e-43,
        0,
        -1.0842022259940167e-19,
        0.10409986227750778,
        3.4694471231808534e-18,
        0,
        3.6134361614975547e-36,
        -3.4694471231808534e-18,
        0.10409986227750778,
        0,
        0.063671670854091644,
        0.14620991051197052,
        0.58744364976882935,
        1
      ],
      "name": "Bird_9"
    },
    {
      "children": [
        13
      ],
      "name": "Bird_roll_env_07_lambert10_0_10"
    },
    {
      "mesh": 0,
      "name": ""
    },
    {
      "children": [
        15
      ],
      "name": "Bird_RW_11",
      "rotation": [
        -0.033451944589614868,
        -0.025039663538336754,
        0.013181348331272602,
        0.99903976917266846
      ],
      "scale": [
        0.10409986227750778,
        0.10409986227750778,
        0.10409986227750778
      ],
      "translation": [
        -0.056877929717302322,
        0.19607745110988617,
        0.34891030192375183
      ]
    },
    {
      "children": [
        16
      ],
      "name": "Bird_RW_roll_env_07_fish_MaterialSG1_0_12"
    },
    {
      "mesh": 1,
      "name": ""
    },
    {
      "children": [
        18
      ],
      "name": "Bird_LW_13",
      "rotation": [
        -0.022036392241716385,
        0.045217830687761307,
        0.9985501766204834,
        -0.01916586235165596
      ],
      "scale": [
        0.10409986227750778,
        0.10409986227750778,
        0.10409986227750778
      ],
      "translation": [
        -0.056877929717302322,
        0.19607745110988617,
        0.34891030192375183
      ]
    },
    {
      "children": [
        19
      ],
      "name": "Bird_LW_roll_env_07_fish_MaterialSG1_0_14"
    },
    {
      "mesh": 2,
      "name": ""
    }
  ],
  "scene": 0,
  "scenes": [
    {
      "name": "OSG_Scene",
      "nodes": [
        0
      ]
    }
  ]
}

